PathFileType	4	(X/Y/Z)	RBDS08\RBDS08runT25.trc
DataRate	CameraRate	NumFrames	NumMarkers	Units	OrigDataRate	OrigDataStartFrame	OrigNumFrames
150.000000	150.000000	4	33	mm	150.000000	3375	4500
Frame#	Time	L.ASIS			L.Heel.Bottom			L.Heel.Lateral			L.Heel.Top			L.Iliac.Crest			L.MT1			L.MT5			L.PSIS			L.Shank.Bottom.Lateral			L.Shank.Bottom.Medial			L.Shank.Top.Lateral			L.Shank.Top.Medial			L.Thigh.Bottom.Lateral			L.Thigh.Bottom.Medial			L.Thigh.Top.Lateral			L.Thigh.Top.Medial			R.ASIS			R.ASY			R.Heel.Bottom			R.Heel.Lateral			R.Heel.Top			R.Iliac.Crest			R.MT1			R.MT5			R.PSIS			R.Shank.Bottom.Lateral			R.Shank.Bottom.Medial			R.Shank.Top.Lateral			R.Shank.Top.Medial			R.Thigh.Bottom.Lateral			R.Thigh.Bottom.Medial			R.Thigh.Top.Lateral			R.Thigh.Top.Medial			
		X1	Y1	Z1	X2	Y2	Z2	X3	Y3	Z3	X4	Y4	Z4	X5	Y5	Z5	X6	Y6	Z6	X7	Y7	Z7	X8	Y8	Z8	X9	Y9	Z9	X10	Y10	Z10	X11	Y11	Z11	X12	Y12	Z12	X13	Y13	Z13	X14	Y14	Z14	X15	Y15	Z15	X16	Y16	Z16	X17	Y17	Z17	X18	Y18	Z18	X19	Y19	Z19	X20	Y20	Z20	X21	Y21	Z21	X22	Y22	Z22	X23	Y23	Z23	X24	Y24	Z24	X25	Y25	Z25	X26	Y26	Z26	X27	Y27	Z27	X28	Y28	Z28	X29	Y29	Z29	X30	Y30	Z30	X31	Y31	Z31	X32	Y32	Z32	X33	Y33	Z33	

3376	22.5	2145.105679317862	980.302868629195	887.5563377708258	2045.153523711163	34.80877919932577	936.9642409469868	2081.110410187951	53.04751601825537	897.0465818385256	2061.664407119717	83.77056887288923	946.141494729856	2086.520425413261	1038.763414871353	854.491588238229	2267.975551008523	49.3753752915808	1000.309315918929	2241.383954445879	40.33856837691415	890.4242790964689	1973.68207547104	1002.305069297803	957.8676691309804	2144.861447473561	151.9195381064042	897.6453973819428	2103.609129362613	163.8312799469443	926.107499093565	2156.068442359481	229.5158844541164	876.8487678763637	2117.339248456515	245.5216165799889	910.1440088019474	2178.60281039667	617.1844819311063	828.974482401658	2126.301035615004	589.9507369766459	871.5663640728156	2120.696835860261	711.1132169124169	819.1223358227342	2073.132552707279	686.8240750598629	863.3785357444233	2150.958935914926	957.8094453461371	1115.526819318195	1666.774293003599	253.8054982019044	1082.220123827572	1580.205840511754	426.7875644561606	1064.084981490659	1597.31783479469	404.1034045307306	1108.60076543958	1630.399021750037	421.3830714045956	1065.484487182293	2104.986370621676	1030.109330367897	1143.890358437374	1620.343723237846	203.8902804850105	1038.952211483976	1604.623872504676	241.3416928308085	1141.694756011899	1979.261059416485	997.0021284101006	1057.628332861548	1731.689093217201	397.6519792694523	1118.10520598085	1726.480174719171	422.8784805491784	1070.001964995174	1807.417207087654	428.2790601317158	1122.789542224663	1802.314902548525	449.8117588482502	1074.15264612223	2069.892605143618	542.8787246821996	1144.107445726241	2013.691755107741	544.1245041855652	1097.783898552036	2057.057956093898	651.2599218919967	1161.453367580886	2002.284129504425	651.7390040735417	1119.640932287717	
3377	22.50666666666667	2142.874038996283	977.469335185341	886.9881325552582	2028.489661158831	35.12748830877268	936.8969236868631	2064.432985637483	53.58354972318187	896.9566176402102	2045.068968377674	84.01773435480939	946.2184342347341	2083.288941771247	1033.478506317313	854.9417424622284	2251.144130742091	49.80810811823411	1000.38091236191	2224.622925745058	40.82194366527427	890.5977877538793	1971.578418433299	998.577500144257	959.5083367984524	2131.312720763546	151.8406954736462	897.4472649961631	2090.083354988343	165.1258238728061	925.4076363755943	2145.034108237722	228.9997925632438	876.3196142812466	2106.470991108371	246.3374044929762	909.1530482001007	2174.566863160277	614.3536179263275	828.2266469879976	2122.852447922987	587.5857151333057	871.8454909446251	2117.128859427111	708.4886034382376	818.6679718327623	2070.069655773958	684.7075137472289	863.8630396784866	2149.71121783467	952.8822662415852	1115.465269478198	1676.964503109333	259.1222371470229	1083.531410116592	1592.193662332481	433.2646145897996	1066.595066437672	1609.731013167706	410.5428304159773	1110.945448143834	1642.353139889042	427.3987300533961	1067.301892338467	2103.161659636049	1024.821685445436	1144.560989328905	1629.293227442924	209.7296243164376	1041.143430790318	1615.817585845148	247.5121127946803	1144.04805209911	1977.495142258912	992.5310879721504	1058.273181482528	1744.356285837491	401.409585140545	1118.925010766344	1739.353008550017	426.7454117002836	1070.882646512537	1820.793524722353	430.1434263658442	1122.950993719345	1815.80317606956	451.771988584314	1074.324839331741	2078.275458383712	538.4701528557102	1142.752655927609	2022.406708454917	538.1660322513344	1096.053478846292	2062.393520252197	646.4573564069386	1160.054765384194	2007.857193087717	645.4175037264529	1117.946400462919	
3378	22.51333333333334	2140.695942468365	975.1423883626046	886.4065526378095	2011.925956632739	35.38453235714179	936.807056236495	2047.851475476627	54.05922473370088	896.8136372000035	2028.502177333897	84.22269019925741	946.1930330164137	2079.787689589324	1028.83910085464	855.39174980828	2234.382963641631	50.37824698891591	1000.316458697437	2207.898238000573	41.27065315276752	890.6853063565474	1969.579438360715	995.5594341841382	960.9848535930973	2117.454477093007	151.7669801797082	897.1107149412643	2076.342402535629	166.3016436955997	924.6748410065948	2133.460240354286	228.433741102424	875.6862148990992	2095.145432644865	246.9913596770864	908.1339599607996	2169.904896014161	611.6570586560763	827.4619668743144	2118.582276978525	585.4440383304526	871.9181025482873	2113.211250330717	706.1741017969761	818.2020220471851	2066.51174337643	682.9813111212991	864.195508970072	2148.279484427054	948.5798923112516	1115.48491173204	1688.152124263214	263.8297268490275	1084.697737467334	1604.574369042848	438.7926237803127	1068.917237978048	1622.678129455768	416.1238181038075	1113.043638654398	1654.696860656453	432.6064579812999	1068.860582651037	2101.089424046965	1020.326334135763	1145.218482947153	1639.419621793413	214.7498435049562	1043.311158577616	1628.189399787729	252.8705091978493	1146.268881820918	1975.763962395379	988.8855152360821	1058.867766383248	1757.460213830741	404.7750484475195	1119.634026800333	1752.602053973022	430.1998154343611	1071.628445647478	1834.462379192318	431.8725396736269	1123.024952127938	1829.543881327907	453.5905618224579	1074.415009476557	2086.781950244991	534.8906648414689	1141.403173300488	2031.27241276793	533.0288838337841	1094.299653860349	2067.71901990408	642.3794260684573	1158.659221414297	2013.489369464408	639.802397878668	1116.240118636931	
3379	22.52	2138.611959744159	973.2886707216593	885.8366005681776	1995.417229882293	35.61272240246841	936.7125059900792	2031.333048012974	54.48548510706245	896.6422080473866	2011.956318307352	84.4173460380665	946.0997523318459	2076.160604995446	1024.961470516419	855.8068618993589	2217.699194231749	50.92325063389575	1000.133719747926	2191.202791716002	41.60087461177095	890.6808570198351	1967.717484859237	993.2792984745021	962.2220768547593	2103.302145025544	151.6561206788436	896.6791881366634	2062.394753392255	167.3201785471618	923.9558203448498	2121.361742775608	227.7933030868672	874.9893993265385	2083.372393597127	247.4600331305246	907.1339007469671	2164.659972494275	609.1165374090457	826.6694854364411	2113.499344559729	583.524725149933	871.7157095510931	2108.970594588994	704.1818290631845	817.7073180834215	2062.466226700565	681.6312605867062	864.3223906029923	2146.713033882351	944.9944735654391	1115.571361087446	1700.242403238166	267.9023209859632	1085.69575861177	1617.15178695007	443.2885708975427	1071.031108417734	1635.977456127946	420.7792857680831	1114.871619934825	1667.239857853136	436.9398481773128	1070.135382567198	2098.819635681195	1016.693457985565	1145.849452777295	1650.649445613094	218.8817018435444	1045.430513307795	1641.634551732133	257.3699789924946	1148.340148065207	1974.100418447731	986.0798208489845	1059.381361993405	1770.857886935518	407.7314948661751	1120.214230424094	1766.076813197014	433.2306478686807	1072.224599187077	1848.295173311836	433.4828280800442	1123.004801430435	1843.401776395679	455.286301747971	1074.418898340246	2095.442189379859	532.1787857810459	1140.087484757085	2040.312810399594	528.7518207616971	1092.566353869679	2073.075378787276	639.0544605689407	1157.307987298861	2019.216333122918	634.9250957142272	1114.578107137585	
